<?xml version="1.0" standalone="no"?>
<!DOCTYPE svg PUBLIC "-//W3C//DTD SVG 20010904//EN"
 "http://www.w3.org/TR/2001/REC-SVG-20010904/DTD/svg10.dtd">
<svg version="1.0" xmlns="http://www.w3.org/2000/svg"
 width="512.000000pt" height="512.000000pt" viewBox="0 0 512.000000 512.000000"
 preserveAspectRatio="xMidYMid meet">

<g transform="translate(0.000000,512.000000) scale(0.100000,-0.100000)"
fill="#000000" stroke="none">
<path d="M1781 5105 c-178 -39 -348 -172 -429 -336 -76 -153 -72 -66 -72
-1569 0 -1503 -4 -1416 72 -1569 82 -166 251 -297 434 -336 104 -22 2724 -22
2828 0 239 50 441 252 491 491 22 104 22 2724 0 2828 -50 239 -252 441 -491
491 -100 21 -2735 21 -2833 0z m2830 -336 c71 -33 125 -87 158 -158 l26 -56 0
-1355 0 -1355 -26 -56 c-33 -71 -87 -125 -158 -158 l-56 -26 -1355 0 -1355 0
-56 26 c-71 33 -125 87 -158 158 l-26 56 -3 1334 c-3 1466 -6 1387 58 1482 36
55 91 96 163 120 49 18 123 18 1392 16 l1340 -2 56 -26z"/>
<path d="M501 3825 c-178 -39 -348 -172 -429 -336 -76 -153 -72 -66 -72 -1569
0 -1503 -4 -1416 72 -1569 82 -166 251 -297 434 -336 104 -22 2724 -22 2828 0
183 39 352 170 434 336 60 121 72 188 72 417 l0 192 -159 0 -159 0 -4 -197
c-3 -189 -4 -200 -29 -254 -33 -71 -87 -125 -158 -158 l-56 -26 -1355 0 -1355
0 -56 26 c-71 33 -125 87 -158 158 l-26 56 0 1355 0 1355 26 56 c33 71 87 125
158 158 54 25 65 26 254 29 l197 4 0 159 0 159 -197 -1 c-129 0 -220 -5 -262
-14z"/>
</g>
</svg>
