<?xml version="1.0" standalone="no"?>
<!DOCTYPE svg PUBLIC "-//W3C//DTD SVG 20010904//EN"
 "http://www.w3.org/TR/2001/REC-SVG-20010904/DTD/svg10.dtd">
<svg version="1.0" xmlns="http://www.w3.org/2000/svg"
 width="512.000000pt" height="512.000000pt" viewBox="0 0 512.000000 512.000000"
 preserveAspectRatio="xMidYMid meet">

<g transform="translate(0.000000,512.000000) scale(0.100000,-0.100000)"
fill="#000000" stroke="none">
<path d="M1781 5105 c-178 -39 -348 -172 -429 -336 -76 -153 -72 -66 -72
-1569 0 -1503 -4 -1416 72 -1569 82 -166 251 -297 434 -336 104 -22 2724 -22
2828 0 239 50 441 252 491 491 22 104 22 2724 0 2828 -50 239 -252 441 -491
491 -100 21 -2735 21 -2833 0z"/>
<path d="M501 3825 c-178 -39 -348 -172 -429 -336 -76 -153 -72 -66 -72 -1569
0 -1503 -4 -1416 72 -1569 82 -166 251 -297 434 -336 104 -22 2724 -22 2828 0
183 39 352 170 434 336 60 121 72 188 72 417 l0 192 -1068 0 c-1041 0 -1069 1
-1140 20 -286 80 -572 366 -652 652 -19 71 -20 99 -20 1140 l0 1068 -197 -1
c-129 0 -220 -5 -262 -14z"/>
</g>
</svg>
