<?xml version="1.0" standalone="no"?>
<!DOCTYPE svg PUBLIC "-//W3C//DTD SVG 20010904//EN"
 "http://www.w3.org/TR/2001/REC-SVG-20010904/DTD/svg10.dtd">
<svg version="1.0" xmlns="http://www.w3.org/2000/svg"
 width="512.000000pt" height="512.000000pt" viewBox="0 0 512.000000 512.000000"
 preserveAspectRatio="xMidYMid meet">

<g transform="translate(0.000000,512.000000) scale(0.100000,-0.100000)"
fill="#000000" stroke="none">
<path d="M445 5046 c-38 -17 -70 -48 -92 -89 -17 -29 -18 -77 -18 -602 0 -313
3 -582 7 -597 12 -40 57 -89 103 -109 35 -16 68 -19 249 -19 193 0 213 2 254
21 26 13 54 38 70 62 27 40 27 42 30 249 l3 208 530 0 529 0 0 -1700 0 -1700
-247 0 c-244 0 -247 0 -289 -25 -28 -17 -49 -39 -64 -69 -20 -42 -21 -56 -18
-274 l3 -229 29 -37 c16 -21 47 -47 70 -57 39 -18 84 -19 966 -19 882 0 927 1
966 19 23 10 54 36 70 57 l29 37 3 229 c3 218 2 232 -18 274 -15 30 -36 52
-64 69 -42 25 -45 25 -289 25 l-247 0 0 1700 0 1700 530 0 530 0 0 -197 c0
-231 9 -262 81 -310 l42 -28 216 -3 c180 -3 222 0 258 13 47 18 99 71 110 113
5 15 8 284 8 597 l0 570 -23 40 c-13 22 -39 52 -59 65 l-37 25 -2095 2 c-1740
2 -2101 0 -2126 -11z"/>
</g>
</svg>
