<?xml version="1.0" standalone="no"?>
<!DOCTYPE svg PUBLIC "-//W3C//DTD SVG 20010904//EN"
 "http://www.w3.org/TR/2001/REC-SVG-20010904/DTD/svg10.dtd">
<svg version="1.0" xmlns="http://www.w3.org/2000/svg"
 width="512.000000pt" height="512.000000pt" viewBox="0 0 512.000000 512.000000"
 preserveAspectRatio="xMidYMid meet">

<g transform="translate(0.000000,512.000000) scale(0.100000,-0.100000)"
fill="#000000" stroke="none">
<path d="M241 4609 c-103 -17 -183 -85 -221 -187 -20 -52 -20 -83 -20 -1862 0
-1779 0 -1810 20 -1862 40 -106 117 -169 230 -187 91 -15 4529 -15 4620 0 113
18 190 81 230 187 20 52 20 83 20 1862 0 1779 0 1810 -20 1862 -40 106 -117
169 -230 187 -82 14 -4549 13 -4629 0z m4299 -1866 c0 -1271 0 -1297 -19
-1278 -10 11 -157 189 -326 395 -169 206 -315 381 -323 388 -41 33 -63 20
-457 -268 -210 -153 -387 -281 -392 -282 -5 -2 -306 285 -667 637 -362 352
-669 644 -682 649 -15 6 -34 6 -50 0 -18 -6 -168 -214 -535 -738 l-509 -729 0
1261 0 1262 1980 0 1980 0 0 -1297z"/>
<path d="M3134 3400 c-193 -68 -314 -237 -316 -440 -2 -134 42 -239 137 -334
183 -183 472 -181 657 5 177 176 179 462 6 645 -60 64 -109 95 -193 124 -76
26 -218 26 -291 0z"/>
</g>
</svg>
